<?xml version="1.0" standalone="no"?>
<!DOCTYPE svg PUBLIC "-//W3C//DTD SVG 20010904//EN"
 "http://www.w3.org/TR/2001/REC-SVG-20010904/DTD/svg10.dtd">
<svg version="1.0" xmlns="http://www.w3.org/2000/svg"
 width="500.000000pt" height="500.000000pt" viewBox="0 0 500.000000 500.000000"
 preserveAspectRatio="xMidYMid meet">
<metadata>
Created by potrace 1.16, written by Peter Selinger 2001-2019
</metadata>
<g transform="translate(0.000000,500.000000) scale(0.100000,-0.100000)"
fill="#000000" stroke="none">
<path d="M2300 4434 c-14 -2 -59 -9 -100 -15 -398 -56 -808 -270 -1097 -572
-270 -283 -438 -606 -514 -992 -30 -156 -38 -456 -15 -615 126 -870 791 -1538
1657 -1664 139 -21 399 -21 538 0 587 85 1078 411 1397 927 260 419 343 974
219 1467 -191 765 -830 1340 -1616 1454 -97 15 -396 20 -469 10z m380 -89
c476 -35 971 -307 1282 -706 473 -605 522 -1444 123 -2099 -362 -596 -1023
-938 -1717 -889 -861 60 -1575 721 -1703 1575 -22 144 -22 404 0 548 128 852
844 1516 1700 1576 108 7 144 7 315 -5z"/>
<path d="M2250 4285 c-526 -80 -970 -364 -1260 -805 -470 -716 -356 -1690 267
-2280 341 -323 780 -500 1239 -500 1102 0 1948 978 1784 2065 -42 286 -144
541 -310 778 -84 119 -307 342 -430 430 -114 81 -340 194 -470 237 -185 60
-315 81 -530 85 -137 3 -223 0 -290 -10z m428 -46 c228 -24 397 -75 607 -179
351 -175 620 -448 790 -802 234 -489 233 -1040 -4 -1523 -173 -352 -437 -619
-788 -796 -559 -283 -1233 -241 -1755 110 -393 264 -665 681 -749 1147 -26
141 -31 408 -11 546 115 795 745 1406 1542 1497 109 12 257 13 368 0z"/>
<path d="M2463 4043 c10 -3 17 -10 14 -16 -2 -7 -14 -54 -27 -104 -13 -51 -26
-93 -29 -93 -3 0 -24 44 -47 98 -28 66 -37 99 -30 104 13 9 -60 10 -91 2 -20
-5 -21 -8 -9 -28 8 -11 40 -78 71 -148 64 -141 86 -160 104 -90 6 20 26 92 44
160 l34 122 -26 -1 c-18 -1 -21 -3 -8 -6z"/>
<path d="M2659 4031 c12 -8 12 -28 -4 -143 -12 -92 -22 -137 -33 -145 -14 -11
-13 -13 9 -13 13 0 41 -3 62 -6 30 -5 36 -4 32 7 -3 8 4 77 15 153 11 77 19
140 18 141 -2 1 -28 5 -58 9 -35 4 -50 3 -41 -3z"/>
<path d="M2943 3983 c12 -7 9 -15 -44 -152 -41 -107 -53 -129 -67 -124 -43 15
0 -8 56 -31 39 -15 59 -20 52 -11 -9 10 -4 32 23 97 18 46 41 104 51 131 19
52 19 51 47 37 23 -13 24 -41 3 -86 -13 -28 -22 -34 -48 -34 -26 -1 -28 -2
-13 -11 21 -12 22 -32 1 -86 -22 -56 -9 -88 38 -101 40 -11 50 -8 67 21 14 22
13 22 -7 4 -28 -25 -36 -6 -17 39 19 46 19 63 -2 86 -15 17 -14 18 15 18 57 0
84 79 40 119 -11 11 -55 34 -97 50 -75 29 -113 42 -98 34z"/>
<path d="M1752 3871 c-11 -6 -9 -37 8 -165 11 -86 18 -161 15 -166 -9 -15 9
-12 31 5 13 11 14 13 3 9 -12 -4 -18 4 -22 33 -10 59 -9 61 32 82 l38 20 33
-34 c18 -19 29 -38 25 -45 -4 -6 20 3 54 20 34 16 61 33 61 36 0 3 -4 3 -8 0
-5 -3 -63 44 -130 104 -66 61 -122 110 -124 110 -2 0 -9 -4 -16 -9z"/>
<path d="M3302 3770 c-40 -49 -40 -55 1 -30 35 22 87 27 87 9 0 -9 -124 -181
-161 -223 -5 -5 -15 -4 -24 4 -8 7 -15 10 -15 7 0 -8 117 -97 127 -97 4 0 1 6
-9 13 -15 12 -7 25 69 126 46 62 90 110 96 108 8 -3 11 -25 10 -62 l-2 -58 31
42 c17 23 29 43 27 45 -8 5 -185 139 -195 147 -7 6 -22 -6 -42 -31z"/>
<path d="M1453 3658 c-26 -23 -41 -39 -32 -36 11 5 41 -24 105 -99 49 -58 88
-112 88 -119 -2 -14 60 30 86 61 11 13 10 15 -2 10 -15 -6 -191 188 -191 212
0 18 0 18 -54 -29z"/>
<path d="M3665 3519 c4 -11 -16 -32 -72 -74 -95 -70 -123 -101 -123 -138 0
-36 14 -63 53 -104 48 -51 78 -45 179 29 45 34 93 67 106 73 21 11 21 13 5 26
-9 8 -14 9 -11 4 10 -17 -180 -155 -213 -155 -41 0 -71 33 -67 73 3 27 17 43
98 104 52 40 101 71 108 68 19 -7 15 4 -20 49 -44 57 -50 64 -43 45z"/>
<path d="M1243 3428 c-45 -49 -116 -149 -109 -155 3 -4 6 -1 6 6 0 12 68 -33
192 -125 l57 -43 23 32 c35 46 43 62 30 53 -13 -8 -121 63 -122 80 0 6 6 16
13 22 14 12 41 2 89 -32 32 -22 61 -20 86 7 23 24 29 61 12 72 -6 3 -7 -1 -4
-9 9 -24 -15 -19 -59 11 -33 23 -43 25 -66 17 -26 -10 -27 -10 -23 18 3 21 -2
36 -19 54 -32 34 -68 31 -106 -8z"/>
<path d="M2320 3130 c-8 -11 -23 -23 -34 -26 -14 -5 -16 -8 -5 -14 19 -12 -2
-52 -42 -80 l-32 -23 7 44 c6 39 4 45 -12 46 -17 1 -19 -6 -19 -71 0 -72 -12
-110 -42 -133 -15 -11 -14 -12 1 -13 9 0 23 -3 32 -6 10 -4 16 -1 16 9 0 15
36 47 52 47 5 0 8 -8 8 -18 0 -23 -60 -78 -69 -64 -3 6 -19 15 -34 21 -30 12
-35 26 -12 35 22 8 18 36 -5 36 -11 0 -20 -4 -20 -10 0 -5 -4 -9 -9 -7 -5 1
-10 -2 -11 -8 -1 -5 -6 -17 -11 -26 -7 -14 -2 -18 29 -22 21 -4 44 -16 53 -29
16 -21 19 -21 36 -7 10 9 23 19 30 23 19 11 -3 -54 -28 -81 -33 -34 -17 -38
20 -4 17 16 31 38 31 50 0 17 6 21 30 21 30 0 30 0 23 48 -3 26 -7 48 -8 50
-2 2 3 15 10 29 7 14 11 32 8 39 -3 8 2 25 11 39 21 32 20 45 -4 45 -25 0 -25
5 1 42 12 16 19 31 17 33 -2 3 -10 -5 -18 -15z"/>
<path d="M1006 3002 c-35 -96 -44 -130 -27 -104 11 19 268 -73 273 -97 2 -9
22 34 45 94 22 61 38 113 34 117 -3 4 -23 14 -45 23 l-38 16 20 -28 c26 -37
35 -69 28 -99 -8 -29 -14 -30 -87 -3 -52 19 -57 24 -48 41 5 10 24 21 41 25
l30 6 -48 18 c-64 25 -66 24 -46 -11 12 -20 14 -32 6 -40 -14 -14 -118 22
-122 43 -5 24 43 67 73 67 35 0 31 16 -6 24 -17 3 -35 6 -39 6 -4 0 -24 -44
-44 -98z"/>
<path d="M2771 3053 c-1 -21 -9 -38 -23 -48 l-23 -17 28 5 c34 5 36 -14 5 -43
-21 -19 -21 -20 -2 -20 14 -1 11 -4 -11 -14 -29 -12 -30 -12 -36 18 -5 30 -5
30 -13 -11 -5 -30 -13 -43 -24 -43 -15 0 -15 -2 -2 -10 13 -8 13 -10 -2 -10
-12 0 -22 15 -33 48 l-15 47 2 -40 c2 -64 -1 -75 -18 -75 -9 0 -24 10 -34 23
-18 22 -18 21 -7 -25 l10 -48 51 0 c103 0 168 -64 188 -183 9 -58 14 -67 32
-67 13 0 17 3 9 8 -6 4 14 7 45 7 l57 0 3 38 c3 31 7 37 26 37 13 0 29 -7 36
-16 8 -9 25 -14 44 -12 29 3 31 6 29 38 -1 19 -2 59 -3 88 -1 50 -4 54 -35 69
-21 10 -31 21 -28 30 8 20 -16 43 -43 43 -13 0 -24 4 -24 9 0 5 -9 13 -20 16
-11 4 -31 18 -44 32 -21 22 -30 25 -65 20 l-41 -5 -1 51 c-1 61 -17 114 -18
60z"/>
<path d="M3658 3063 c-40 -4 -44 -9 -27 -33 9 -13 10 -12 5 3 -5 15 2 17 48
17 l53 0 13 -41 c9 -27 10 -43 3 -47 -5 -4 -24 -19 -41 -34 l-32 -26 16 -39
c9 -21 18 -40 19 -41 8 -9 245 214 243 228 -3 12 -26 15 -133 16 -72 0 -147
-1 -167 -3z"/>
<path d="M4028 2749 c-8 -21 -262 -46 -283 -29 -12 10 -13 6 -9 -22 2 -18 8
-68 13 -111 5 -43 11 -81 14 -83 3 -3 27 -4 53 -2 l49 3 -36 16 c-63 29 -92
94 -46 103 36 8 248 28 251 24 2 -1 7 -11 13 -21 7 -14 8 -2 5 40 -6 69 -16
104 -24 82z"/>
<path d="M926 2653 c-13 -134 -15 -168 -10 -149 5 16 13 17 52 13 26 -4 88 -9
137 -13 61 -4 94 -11 102 -21 9 -11 13 -1 18 50 4 35 5 73 2 83 -3 13 -5 11
-6 -8 -1 -31 -7 -32 -85 -22 -40 6 -46 10 -46 30 0 17 9 28 33 38 l32 14 -40
1 c-22 1 -51 4 -65 7 l-25 6 21 -19 c12 -10 24 -25 27 -34 10 -31 -6 -37 -76
-32 l-69 6 6 30 c8 38 22 55 60 72 l31 13 -46 1 -47 1 -6 -67z"/>
<path d="M2204 2663 c-21 -29 -22 -33 -6 -19 27 23 39 15 25 -16 -10 -23 -7
-30 64 -127 6 -8 303 -9 303 0 0 5 0 12 0 17 -1 4 -11 6 -23 5 -15 -1 -32 10
-51 33 l-29 35 29 -6 c26 -6 27 -5 10 6 -34 21 -86 28 -117 15 l-29 -12 29
-41 c49 -68 11 -68 -51 0 -44 49 -62 43 -23 -7 27 -36 27 -36 5 -36 -13 0 -38
17 -61 42 -38 41 -46 68 -41 131 2 24 -2 22 -34 -20z"/>
<path d="M3229 2404 c6 -12 8 -23 6 -25 -2 -3 0 -21 4 -42 7 -30 6 -37 -6 -37
-10 0 -14 -9 -12 -27 3 -33 -21 -82 -50 -103 -15 -10 -21 -25 -21 -51 0 -50
-21 -69 -75 -69 -59 0 -112 -26 -124 -61 -5 -15 -6 -31 -3 -35 4 -4 -5 0 -20
9 -16 10 -28 13 -28 7 0 -5 -8 -10 -18 -10 -11 0 -27 -8 -36 -19 -16 -17 -15
-19 15 -25 17 -3 62 -6 100 -6 62 0 69 2 69 19 0 11 11 33 24 48 22 25 31 28
92 29 64 1 69 3 95 33 15 18 32 53 39 77 13 47 9 182 -6 193 -5 3 -10 17 -12
31 -1 14 -7 27 -12 28 -6 2 -8 7 -5 11 2 5 -2 17 -11 27 -14 18 -15 18 -5 -2z"/>
<path d="M1933 2377 c-90 -39 -140 -81 -170 -141 -24 -50 -25 -58 -13 -81 7
-13 24 -32 38 -41 22 -15 26 -15 40 0 14 14 14 16 2 17 -8 1 -18 1 -22 0 -3 0
-11 13 -16 29 -8 23 -7 31 5 42 15 12 16 9 10 -19 -6 -31 -5 -32 38 -38 52 -8
61 -4 70 34 9 43 69 91 114 91 12 0 21 3 21 6 0 22 -45 124 -54 124 -6 -1 -35
-11 -63 -23z"/>
<path d="M2495 2289 c-16 -11 -46 -19 -65 -19 -30 -1 -32 -2 -17 -11 10 -6 34
-8 53 -5 28 6 34 4 34 -10 0 -14 -6 -15 -37 -8 -50 10 -137 12 -160 3 -16 -7
-17 -8 0 -8 20 -1 22 -12 5 -29 -9 -9 -6 -14 13 -21 25 -9 59 2 59 19 0 5 -8
7 -17 3 -10 -3 -15 -3 -11 1 10 12 79 25 95 19 20 -8 43 -58 45 -97 1 -37 -19
-96 -33 -96 -5 0 -8 -6 -6 -12 1 -7 -5 -11 -13 -10 -8 2 -40 8 -70 14 -30 5
-68 17 -84 25 -28 15 -29 15 -22 -2 4 -11 1 -22 -6 -27 -20 -12 -24 -10 -42
16 -15 23 -14 28 11 77 20 37 24 54 15 57 -22 7 -13 30 16 38 25 7 24 8 -18
14 -54 7 -50 8 -55 -19 -3 -18 -1 -21 16 -16 21 7 21 7 0 -14 -23 -23 -36 -28
-25 -8 4 7 3 9 -2 4 -9 -9 -11 -13 -13 -49 -2 -22 -2 -23 -16 -4 -8 11 -15 16
-15 12 0 -5 -6 -3 -14 3 -12 10 -18 7 -33 -16 -22 -33 -93 -103 -105 -103 -5
0 -6 -4 -3 -10 3 -6 -5 -10 -19 -10 -14 0 -28 5 -31 11 -5 6 -11 4 -19 -7 -7
-9 -30 -19 -51 -23 -21 -3 -36 -10 -34 -16 2 -5 8 -9 13 -7 5 2 3 -4 -4 -14
-13 -15 -8 -16 70 -9 l85 7 22 -31 c13 -17 38 -34 57 -40 33 -8 90 -2 114 13
6 3 13 -3 17 -13 9 -30 61 -69 100 -77 50 -9 83 2 123 42 32 32 34 37 31 91
-3 54 -1 60 28 89 19 19 34 46 39 69 4 24 18 48 35 63 36 29 37 52 5 52 -14 0
-27 4 -31 9 -7 12 32 34 45 26 6 -3 10 1 10 9 0 8 -10 16 -22 18 -31 4 -35 28
-4 28 13 0 28 5 32 11 5 8 -3 10 -24 7 -17 -2 -33 -1 -34 2 -2 4 -16 -1 -33
-11z"/>
</g>
</svg>
